<?xml version="1.0" encoding="utf-8"?>
<!-- Generator: Adobe Illustrator 24.3.0, SVG Export Plug-In . SVG Version: 6.00 Build 0)  -->
<svg version="1.1" id="Layer_1" xmlns="http://www.w3.org/2000/svg" xmlns:xlink="http://www.w3.org/1999/xlink" x="0px" y="0px"
	 viewBox="0 0 24 24" style="enable-background:new 0 0 24 24;" xml:space="preserve">
<style type="text/css">
	.st0{fill:none;}
	.st1{fill:#FFDE03;}
</style>
<g>
	<rect y="0" class="st0" width="24" height="24"/>
</g>
<path class="st1" d="M18,11c0,0.7,0,1.3,0,2c1.2,0,2.8,0,4,0c0-0.7,0-1.3,0-2C20.8,11,19.2,11,18,11z"/>
<path class="st1" d="M16,17.6c1,0.7,2.2,1.6,3.2,2.4c0.4-0.5,0.8-1.1,1.2-1.6c-1-0.7-2.2-1.7-3.2-2.4C16.8,16.5,16.4,17.1,16,17.6z"
	/>
<path class="st1" d="M20.4,5.6C20,5.1,19.6,4.5,19.2,4c-1,0.7-2.2,1.7-3.2,2.4c0.4,0.5,0.8,1.1,1.2,1.6C18.2,7.3,19.4,6.3,20.4,5.6z
	"/>
<path class="st1" d="M4,9c-1.1,0-2,0.9-2,2v2c0,1.1,0.9,2,2,2h1v4h2v-4h1l5,3V6L8,9H4z M9,10.7l2-1.2v4.9l-2-1.2L8.6,13H8H4v-2h4
	h0.6L9,10.7z"/>
<path class="st1" d="M15.5,12c0-1.3-0.6-2.5-1.5-3.4v6.7C14.9,14.5,15.5,13.3,15.5,12z"/>
</svg>
