<?xml version="1.0" encoding="utf-8"?>
<!-- Generator: Adobe Illustrator 24.3.0, SVG Export Plug-In . SVG Version: 6.00 Build 0)  -->
<svg version="1.1" id="Layer_1" xmlns="http://www.w3.org/2000/svg" xmlns:xlink="http://www.w3.org/1999/xlink" x="0px" y="0px"
	 viewBox="0 0 24 24" style="enable-background:new 0 0 24 24;" xml:space="preserve">
<style type="text/css">
	.st0{fill:none;}
	.st1{fill:#FFDE03;}
</style>
<path class="st0" d="M0,0h24v24H0V0z"/>
<path class="st1" d="M15,7v13l-4.2-1.8L10,17.8l-0.8,0.3L5,20V7H15 M19,1H9C7.9,1,7,1.9,7,3h10c1.1,0,2,0.9,2,2v13l2,1V3
	C21,1.9,20.1,1,19,1z M15,5H5C3.9,5,3,5.9,3,7v16l7-3l7,3V7C17,5.9,16.1,5,15,5z"/>
</svg>
